<?xml version="1.0" encoding="UTF-8" standalone="no"?>
<!-- Created with Inkscape (http://www.inkscape.org/) -->

<svg
   width="270.93332mm"
   height="270.88321mm"
   viewBox="0 0 270.93332 270.88321"
   version="1.1"
   id="svg1"
   xml:space="preserve"
   sodipodi:docname="app-icon.svg"
   inkscape:version="1.4.4 (dcaf3e7d9e, 2026-05-05)"
   inkscape:export-filename="app-icon.svg"
   inkscape:export-xdpi="667.94849"
   inkscape:export-ydpi="667.94849"
   xmlns:inkscape="http://www.inkscape.org/namespaces/inkscape"
   xmlns:sodipodi="http://sodipodi.sourceforge.net/DTD/sodipodi-0.dtd"
   xmlns="http://www.w3.org/2000/svg"
   xmlns:svg="http://www.w3.org/2000/svg"><sodipodi:namedview
     id="namedview1"
     pagecolor="#ffffff"
     bordercolor="#000000"
     borderopacity="0.25"
     inkscape:showpageshadow="2"
     inkscape:pageopacity="0.0"
     inkscape:pagecheckerboard="0"
     inkscape:deskcolor="#d1d1d1"
     inkscape:document-units="mm"
     inkscape:zoom="0.73008676"
     inkscape:cx="838.94139"
     inkscape:cy="410.22522"
     inkscape:window-width="2560"
     inkscape:window-height="1368"
     inkscape:window-x="0"
     inkscape:window-y="0"
     inkscape:window-maximized="1"
     inkscape:current-layer="svg1" /><defs
     id="defs1" /><g
     id="g18"
     transform="matrix(6.9577969,0,0,6.9577969,-174.98951,-929.66649)"><path
       style="fill:#fdfdfd"
       d="m 42.130655,162.52433 c -3.635584,-0.59282 -6.86312,-2.657 -8.601819,-5.5013 -0.606935,-0.99288 -1.185605,-2.74572 -1.185605,-3.59131 0,-0.44856 0.01086,-0.46905 0.493831,-0.93193 1.410222,-1.35156 1.723203,-1.61011 2.731054,-2.25613 1.030795,-0.66072 3.127352,-1.64616 3.502273,-1.64616 0.200539,0 0.09734,0.35935 -0.194518,0.67733 -0.380818,0.41491 -0.991013,1.70427 -1.149867,2.42972 -0.522187,2.38469 0.426794,5.12565 2.314364,6.68463 2.553073,2.10862 6.023609,2.03826 8.443805,-0.17119 1.209736,-1.1044 1.952329,-2.5719 2.140807,-4.23062 0.199374,-1.75463 -0.341502,-3.64992 -1.397724,-4.89781 -0.246824,-0.29161 -0.433194,-0.54578 -0.414155,-0.56482 0.06131,-0.0613 1.074451,0.3411 1.945131,0.77258 1.734042,0.85933 3.212231,2.01096 4.145991,3.23007 0.57971,0.75686 0.63204,1.00811 0.42786,2.05415 -0.17397,0.89125 -0.48179,1.70487 -0.84554,2.23493 -0.52459,0.76442 -1.540639,1.89888 -2.288978,2.55574 -1.804081,1.58353 -3.71785,2.57179 -5.867485,3.02992 -1.09306,0.23296 -3.152632,0.29289 -4.199425,0.1222 z m 0.555669,-9.00587 c -0.06228,-0.0395 -0.100383,-0.16272 -0.08467,-0.27387 0.02287,-0.16175 0.07928,-0.20209 0.282575,-0.20209 0.203299,0 0.259703,0.0403 0.282574,0.20209 0.02716,0.19206 -0.0984,0.34565 -0.282574,0.34565 -0.04657,0 -0.135625,-0.0323 -0.197908,-0.0718 z m -1.772953,-2.03987 c -0.903616,-0.32516 -1.894272,-1.27077 -1.703923,-1.62644 0.107841,-0.2015 0.701003,-0.58643 1.194358,-0.77506 0.281248,-0.10754 0.408521,-0.22361 0.561096,-0.51171 0.108535,-0.20495 0.310263,-0.48082 0.448284,-0.61305 l 0.250947,-0.24043 0.216372,0.27647 c 0.123618,0.15796 0.439574,0.37814 0.737049,0.51362 0.286373,0.13043 0.646173,0.34342 0.799557,0.47331 0.32448,0.27478 0.610121,0.79127 0.610121,1.10321 0,1.1478 -1.695909,1.91032 -3.113861,1.40008 z"
       id="path18" /><path
       style="fill:#a0a0a0"
       d="m 34.872432,158.86333 c -0.105315,-0.13428 -0.10232,-0.13728 0.03197,-0.032 0.08149,0.0639 0.148167,0.13058 0.148167,0.14816 0,0.0697 -0.06953,0.0248 -0.180133,-0.1162 z m -0.418942,-0.508 -0.205259,-0.23283 0.232834,0.20526 c 0.217618,0.19184 0.27166,0.26041 0.205258,0.26041 -0.01517,0 -0.119941,-0.10478 -0.232833,-0.23284 z m 20.569613,-5.67266 c -0.10532,-0.13429 -0.10232,-0.13728 0.032,-0.032 0.0815,0.0639 0.14817,0.13059 0.14817,0.14817 0,0.0697 -0.0695,0.0248 -0.18013,-0.1162 z m -0.33867,-0.42334 c -0.10532,-0.13428 -0.10232,-0.13728 0.032,-0.032 0.14103,0.1106 0.18588,0.18013 0.1162,0.18013 -0.0176,0 -0.0843,-0.0667 -0.14817,-0.14817 z"
       id="path17" /><path
       style="fill:#cb7300"
       d="m 42.587898,169.45809 c -1.219672,-0.14976 -3.00888,-0.5068 -3.767666,-0.75183 -0.186267,-0.0601 -0.593688,-0.18944 -0.90538,-0.2873 -0.67122,-0.21075 -2.15934,-0.83531 -2.983427,-1.25214 -2.050292,-1.03706 -3.707189,-2.77875 -5.019775,-5.27665 -0.610158,-1.16116 -1.392842,-3.16578 -1.603274,-4.10634 -0.538989,-2.40908 -0.622472,-3.12957 -0.392479,-3.38726 0.222228,-0.24899 0.886829,-0.71907 1.016627,-0.71907 0.113239,0 0.110756,0.0298 -0.06344,0.762 -0.03878,0.16298 -0.09603,0.51165 -0.127221,0.77481 -0.04716,0.39787 -0.02869,0.51911 0.109653,0.71967 0.0915,0.13265 0.41551,0.62219 0.720014,1.08785 1.25855,1.92466 3.94572,4.26029 6.539372,5.68387 3.012573,1.65353 5.842459,2.23626 9.017,1.8568 3.372859,-0.40317 6.123491,-1.7756 9.101661,-4.54129 0.89555,-0.83165 2.41215,-2.38122 2.41265,-2.4651 1.9e-4,-0.0321 -0.1322,-0.0702 -0.2942,-0.0847 -0.28793,-0.0257 -0.26729,-0.0458 0.91719,-0.89299 0.66647,-0.4767 1.28117,-0.94342 1.36601,-1.03717 0.17113,-0.18909 0.47683,-0.21714 0.8706,-0.0799 0.32877,0.11461 0.36131,0.20416 0.41948,1.15452 0.0607,0.99188 -0.0711,1.8113 -0.50058,3.11251 -1.10489,3.34732 -3.73061,6.245 -7.253892,8.00519 -1.51999,0.75937 -3.033981,1.23888 -4.964585,1.57238 -0.736084,0.12716 -3.953659,0.23319 -4.614334,0.15207 z m 12.237355,-13.21174 c 0.0763,-0.17885 0.17661,-0.42043 0.22292,-0.53685 0.13308,-0.33456 0.40906,-1.69415 0.40906,-2.01523 0,-0.2393 0.0211,-0.27401 0.11772,-0.1938 0.0647,0.0537 0.19888,0.28635 0.29807,0.51693 0.21964,0.51056 0.17912,0.63856 -0.54794,1.73121 -0.54449,0.81828 -0.70456,0.97768 -0.49983,0.49774 z m 5.75984,-1.8833 c -0.82116,-0.58583 -3.01119,-2.50978 -3.01119,-2.64535 0,-0.0397 0.0572,-0.0722 0.127,-0.0722 0.0699,0 0.127,-0.0364 0.127,-0.081 0,-0.071 -1.0826,-1.15334 -2.07434,-2.0738 l -0.33866,-0.31432 0.66894,0.0492 c 0.36791,0.0271 1.44147,0.0492 2.38568,0.0492 h 1.71673 l 0.25316,0.65645 c 0.39499,1.02424 0.74022,2.27027 0.88548,3.19589 0.20422,1.30127 0.24984,1.82033 0.15998,1.82033 -0.0443,0 -0.4492,-0.263 -0.89978,-0.58445 z M 27.632707,152.852 c 0.02568,-0.22119 0.07036,-0.66887 0.09929,-0.99483 0.244492,-2.75534 1.832032,-6.42751 3.9165,-9.05934 0.791065,-0.99879 2.379376,-2.49345 3.49839,-3.29211 1.744429,-1.24504 3.905989,-2.21903 6.023717,-2.71425 1.591732,-0.37221 2.135994,-0.42746 4.168963,-0.42315 1.672769,0.004 2.084052,0.0312 2.917003,0.19644 2.523969,0.50058 4.979883,1.64646 6.655173,3.10518 1.67377,1.4574 3.42236,3.74088 3.8126,4.97886 0.20036,0.63562 0.14522,0.73137 -0.4212,0.73137 -0.71161,0 -0.75773,0.0444 -0.4232,0.40764 0.57337,0.62256 1.86308,2.53146 1.77191,2.62262 -0.0441,0.0441 -1.99828,-0.97998 -2.98109,-1.56226 -1.54119,-0.91309 -2.22942,-1.34375 -2.22948,-1.39508 -8e-5,-0.0775 0.42893,-0.14226 1.38075,-0.20844 0.45676,-0.0318 0.79966,-0.0856 0.762,-0.11958 -0.0377,-0.034 -0.51463,-0.2007 -1.05993,-0.37044 -0.5453,-0.16973 -1.3073,-0.44441 -1.69333,-0.6104 -3.981631,-1.71205 -6.299769,-2.26555 -9.507206,-2.27003 -3.271218,-0.005 -6.327724,0.86274 -9.313334,2.64275 -0.946308,0.56419 -2.186907,1.53029 -2.345421,1.82648 -0.08106,0.15147 -0.0625,0.15847 0.282664,0.10669 l 0.369424,-0.0554 -0.211667,0.17355 c -0.116416,0.0954 -0.440266,0.32994 -0.719666,0.5211 -0.2794,0.19115 -0.949059,0.78966 -1.488131,1.33002 -1.125542,1.12823 -2.067239,2.47632 -2.750788,3.9379 -0.229761,0.49128 -0.449898,0.89406 -0.489193,0.89507 -0.03929,10e-4 -0.05043,-0.17914 -0.02475,-0.40033 z"
       id="path16" /><path
       style="fill:#5f5f5f"
       d="m 54.007103,151.49733 c -0.10532,-0.13428 -0.10232,-0.13728 0.032,-0.032 0.14104,0.1106 0.18589,0.18013 0.1162,0.18013 -0.0176,0 -0.0842,-0.0667 -0.14816,-0.14817 z m -0.33867,-0.33866 c -0.10532,-0.13429 -0.10232,-0.13728 0.032,-0.032 0.14103,0.11061 0.18588,0.18013 0.1162,0.18013 -0.0176,0 -0.0843,-0.0667 -0.14817,-0.14816 z"
       id="path15" /><path
       style="fill:#561310"
       d="m 54.652903,156.64083 c 0.0843,-0.0931 0.17229,-0.16933 0.19557,-0.16933 0.0233,0 -0.0266,0.0762 -0.11091,0.16933 -0.0843,0.0931 -0.17229,0.16934 -0.19558,0.16934 -0.0233,0 0.0266,-0.0762 0.11092,-0.16934 z"
       id="path13" /><path
       style="fill:#000000"
       d="M 41.995232,172.42059 C 33.282316,171.2429 26.409577,164.3281 25.27629,155.59933 c -0.168211,-1.29559 -0.168211,-3.7334 0,-5.02899 1.139746,-8.77853 8.050589,-15.68937 16.829111,-16.82911 1.295593,-0.16822 3.733402,-0.16822 5.028994,0 8.778528,1.13974 15.689368,8.05058 16.829108,16.82911 0.16821,1.29559 0.16821,3.7334 0,5.02899 -1.13974,8.77852 -8.05058,15.68937 -16.829108,16.82911 -1.247058,0.16191 -3.913345,0.15784 -5.139163,-0.008 z m 5.207,-3.11457 c 3.813103,-0.65869 6.750701,-2.15032 9.203391,-4.67322 1.78381,-1.83486 3.09417,-4.32881 3.45736,-6.58024 0.1027,-0.63661 0.0755,-2.05113 -0.0454,-2.35831 -0.12565,-0.31937 -0.94071,-0.42445 -1.18641,-0.15296 -0.0848,0.0937 -0.69954,0.56047 -1.36601,1.03717 -1.18448,0.8472 -1.20512,0.8673 -0.91719,0.89299 0.162,0.0145 0.29439,0.0525 0.2942,0.0847 -5e-4,0.0839 -1.5171,1.63345 -2.41265,2.4651 -2.978174,2.76569 -5.728806,4.13812 -9.101665,4.54129 -2.643759,0.31602 -5.010665,-0.03 -7.450666,-1.08936 -3.15297,-1.36884 -6.550416,-4.07286 -8.105706,-6.45131 -0.304504,-0.46566 -0.62851,-0.9552 -0.720014,-1.08785 -0.138342,-0.20056 -0.156815,-0.3218 -0.109653,-0.71967 0.03119,-0.26316 0.08844,-0.61183 0.127221,-0.77481 0.1742,-0.73218 0.176683,-0.762 0.06344,-0.762 -0.129798,0 -0.794399,0.47008 -1.016627,0.71907 -0.229993,0.25769 -0.14651,0.97818 0.392479,3.38726 0.210432,0.94056 0.993116,2.94518 1.603274,4.10634 1.312586,2.4979 2.969483,4.23959 5.019775,5.27665 0.824087,0.41683 2.312207,1.04139 2.983427,1.25214 0.311692,0.0979 0.719113,0.22715 0.90538,0.2873 0.758786,0.24503 2.547994,0.60207 3.767666,0.75183 0.660675,0.0811 3.87825,-0.0249 4.614334,-0.15207 z m -0.872152,-6.90389 c 0.980243,-0.20891 2.09492,-0.59176 2.894033,-0.99399 1.386811,-0.69805 3.09386,-1.9984 4.01252,-3.05655 0.26671,-0.30721 0.57909,-0.65588 0.69417,-0.77483 0.64029,-0.66177 1.68079,-2.12849 1.96374,-2.76813 l 0.16549,-0.37412 -0.21321,-0.442 c -0.81555,-1.69074 -1.76665,-2.6952 -3.74557,-3.9557 -0.950792,-0.60562 -3.1728,-1.62742 -3.288152,-1.51207 -0.01904,0.019 0.167331,0.27321 0.414155,0.56482 1.588867,1.87718 1.888393,4.91122 0.714768,7.24021 -0.498928,0.99009 -1.527417,2.09959 -2.474518,2.66942 -3.949639,2.37635 -8.952714,-0.0601 -9.785979,-4.76574 -0.12864,-0.72645 -0.109289,-1.82669 0.04448,-2.5289 0.158854,-0.72545 0.769049,-2.01481 1.149867,-2.42972 0.291857,-0.31798 0.395057,-0.67733 0.194518,-0.67733 -0.374921,0 -2.471478,0.98544 -3.502273,1.64616 -1.007851,0.64602 -1.320832,0.90457 -2.731054,2.25613 -0.482974,0.46288 -0.493831,0.48337 -0.493831,0.93193 0,0.9518 0.594282,2.6393 1.369142,3.88776 1.616064,2.60382 4.89329,4.63006 8.418282,5.20485 1.046793,0.17069 3.106365,0.11076 4.199425,-0.1222 z m 15.181513,-7.94146 c -0.18618,-1.68395 -0.52206,-3.10288 -1.07218,-4.52939 l -0.25316,-0.65645 h -1.71673 c -0.94421,0 -2.01777,-0.0221 -2.38568,-0.0492 l -0.66894,-0.0492 0.33866,0.31432 c 0.99174,0.92046 2.07434,2.00277 2.07434,2.0738 0,0.0445 -0.0572,0.081 -0.127,0.081 -0.0698,0 -0.127,0.0325 -0.127,0.0722 0,0.23959 3.62085,3.2298 3.91097,3.2298 0.0478,0 0.0587,-0.19762 0.0267,-0.48683 z M 43.138232,153.2965 c 0,-0.22578 -0.02822,-0.254 -0.254,-0.254 -0.203299,0 -0.259704,0.0403 -0.282575,0.20209 -0.03222,0.22791 0.115576,0.35974 0.367241,0.32756 0.126893,-0.0162 0.169334,-0.0853 0.169334,-0.27565 z m -14.991586,-0.93924 c 0.683549,-1.46158 1.625246,-2.80967 2.750788,-3.9379 0.539072,-0.54036 1.208731,-1.13801 1.488131,-1.3281 0.2794,-0.19009 0.6223,-0.44263 0.762,-0.56119 l 0.254,-0.21557 -0.271334,0.0901 c -0.149233,0.0496 -0.339733,0.0749 -0.423333,0.0563 -0.124496,-0.0277 -0.08451,-0.0996 0.220991,-0.39707 1.507021,-1.46756 4.529115,-3.01635 7.183919,-3.68168 1.532577,-0.38408 2.578429,-0.51021 4.211757,-0.50793 2.925262,0.004 5.526033,0.57301 8.53622,1.86732 0.706808,0.30391 1.831408,0.73681 2.499108,0.96199 0.6677,0.22518 1.23072,0.42615 1.25117,0.4466 0.0205,0.0205 -0.33535,0.0631 -0.79066,0.0947 -0.9493,0.066 -1.3782,0.13081 -1.37812,0.20825 6e-5,0.0513 0.68829,0.48199 2.22948,1.39508 0.98281,0.58228 2.93698,1.60637 2.98109,1.56226 0.0916,-0.0916 -1.1991,-2.00065 -1.77654,-2.62767 -0.28154,-0.30571 -0.28534,-0.31856 -0.1062,-0.35887 0.10218,-0.023 0.37629,-0.0518 0.60912,-0.0639 l 0.42333,-0.0221 -0.007,-0.33866 c -0.004,-0.18627 -0.084,-0.49107 -0.17793,-0.67734 -0.0939,-0.18626 -0.27239,-0.53616 -0.39662,-0.77755 -0.43179,-0.83903 -2.19866,-2.90833 -3.30808,-3.87434 -1.67529,-1.45872 -4.131206,-2.6046 -6.655175,-3.10518 -0.832951,-0.16519 -1.244234,-0.19289 -2.917003,-0.19644 -2.032969,-0.004 -2.577231,0.0509 -4.168963,0.42315 -2.117728,0.49522 -4.279288,1.46921 -6.023717,2.71425 -1.119014,0.79866 -2.707325,2.29332 -3.49839,3.29211 -2.084468,2.63183 -3.672008,6.304 -3.9165,9.05934 -0.02892,0.32596 -0.0736,0.77364 -0.09929,0.99483 -0.02568,0.22119 -0.01455,0.40134 0.02475,0.40033 0.03929,-10e-4 0.259432,-0.40379 0.489193,-0.89507 z m 14.627965,-0.84335 c 0.471041,-0.1605 1.022236,-0.61728 1.167207,-0.96727 0.312609,-0.75471 -0.361964,-1.73039 -1.470945,-2.12754 -0.18078,-0.0647 -0.436645,-0.24868 -0.568587,-0.40875 -0.239594,-0.29066 -0.24013,-0.29082 -0.42452,-0.12711 -0.101543,0.0902 -0.311352,0.36048 -0.466242,0.60071 -0.237833,0.36887 -0.374893,0.47977 -0.881555,0.7133 -0.329966,0.1521 -0.692638,0.3867 -0.805937,0.52135 -0.19211,0.22831 -0.197632,0.261 -0.0819,0.48479 0.130706,0.25276 0.869969,0.9184 1.229103,1.10669 0.654681,0.34326 1.63863,0.43033 2.303379,0.20383 z"
       id="path12" /></g></svg>
